<svg xmlns="http://www.w3.org/2000/svg" viewBox="0 0 24 24" fill="#000000"><path d="M12 0L1.608 6v12L12 24l10.392-6V6L12 0zm-1.073 1.445h2.146v2.133H10.927V1.445zm-8.005 4.27l1.984 1.145v2.285L2.922 7.73V5.715zm16.15 0v2.016l-1.984 1.144V6.858l1.984-1.143zM4.103 8.573l3.147 1.817v3.633L4.103 12.206V8.573zm15.794 0v3.633l-3.147 1.817v-3.633l3.147-1.817zM2.437 14.17l1.984 1.144v2.016l-1.984-1.143v-2.017zm19.126 0v2.017l-1.984 1.143v-2.016l1.984-1.144zM12 14.58l-3.147-1.817V9.13L12 10.948l3.147-1.817v3.633L12 14.581zm-7.527 1.993l3.147 1.817v3.633l-3.147-1.817v-3.633zm15.054 0v3.633l-3.147 1.817v-3.633l3.147-1.817zM12 20.51l-1.984-1.145v-2.016L12 17.74v2.77z"/></svg>
